<svg version="1.1" id="Layer_1" xmlns="http://www.w3.org/2000/svg" xmlns:xlink="http://www.w3.org/1999/xlink" x="0px" y="0px" viewBox="0 0 500 500" style="width: 151px;" xml:space="preserve" data-imageid="data-processing-93-34fd1" imageName="Data Processing" class="illustrations_image">
<style type="text/css">
	.st0_data-processing-93-34fd1{fill:#F3DDE2;}
	.st1_data-processing-93-34fd1{opacity:0.32;fill:url(#SVGID_1_);enable-background:new    ;}
	.st2_data-processing-93-34fd1{opacity:0.32;fill:url(#SVGID_00000069369352691563658580000007932067721241864338_);enable-background:new    ;}
	.st3_data-processing-93-34fd1{opacity:0.32;fill:url(#SVGID_00000079464349525006412210000005890017641915939499_);enable-background:new    ;}
	.st4_data-processing-93-34fd1{fill:#E0BC94;}
	.st5_data-processing-93-34fd1{fill:#312F89;}
	.st6_data-processing-93-34fd1{opacity:0.5;fill:#7374B7;enable-background:new    ;}
	.st7_data-processing-93-34fd1{fill:#7374B7;}
	.st8_data-processing-93-34fd1{fill:#C65C14;}
	.st9_data-processing-93-34fd1{fill:#F2F2F2;}
	.st10_data-processing-93-34fd1{fill:#68E1FD;}
	.st11_data-processing-93-34fd1{fill:#053855;}
	.st12_data-processing-93-34fd1{fill:#FFF7E1;}
	.st13_data-processing-93-34fd1{fill:#FBB5AD;}
	.st14_data-processing-93-34fd1{opacity:0.44;fill:#053855;enable-background:new    ;}
	.st15_data-processing-93-34fd1{opacity:0.1;fill:#053855;enable-background:new    ;}
</style>
<g id="Base_data-processing-93-34fd1">
	<polygon class="st0_data-processing-93-34fd1" points="473.6,240.2 295.9,135.9 18.3,297.1 196.8,400.3 &#9;"/>
</g>
<g id="Shadow_data-processing-93-34fd1">
	
		<linearGradient id="SVGID_1_-data-processing-93-34fd1" gradientUnits="userSpaceOnUse" x1="331.8688" y1="2252.2117" x2="356.5988" y2="2275.7617" gradientTransform="matrix(1 0 0 -1 0 2540.04)">
		<stop offset="0" style="stop-color:#C65C14;stop-opacity:3.000000e-02"/>
		<stop offset="0.84" style="stop-color:#C65C14;stop-opacity:0.84"/>
		<stop offset="1" style="stop-color:#C65C14"/>
	</linearGradient>
	<path class="st1_data-processing-93-34fd1" d="M349.5,288.5c11.8-6.4,23.1-14,34.8-20.5l-41.5-1.5l-43.2,22C311.9,294.9,322.3,299.3,349.5,288.5L349.5,288.5&#10;&#9;&#9;z"/>
	
		<linearGradient id="SVGID_00000142158968065179968810000006257979531085599927_-data-processing-93-34fd1" gradientUnits="userSpaceOnUse" x1="232.77" y1="2198.6199" x2="249.98" y2="2215.01" gradientTransform="matrix(1 0 0 -1 0 2540.04)">
		<stop offset="0" style="stop-color:#C65C14;stop-opacity:3.000000e-02"/>
		<stop offset="0.84" style="stop-color:#C65C14;stop-opacity:0.84"/>
		<stop offset="1" style="stop-color:#C65C14"/>
	</linearGradient>
	<path style="opacity:0.32;fill:url(#SVGID_00000142158968065179968810000006257979531085599927_);enable-background:new    ;" d="&#10;&#9;&#9;M243,357c11.8-6.4,23.1-14,34.8-20.5L235.2,313l-33.4,20C214.2,339.5,225.9,346.5,243,357L243,357z"/>
	
		<linearGradient id="SVGID_00000006684748880376828900000012674830644554779065_-data-processing-93-34fd1" gradientUnits="userSpaceOnUse" x1="91.1496" y1="2190.5518" x2="113.9696" y2="2210.7417" gradientTransform="matrix(1 0 0 -1 0 2540.04)">
		<stop offset="0" style="stop-color:#C65C14;stop-opacity:3.000000e-02"/>
		<stop offset="0.84" style="stop-color:#C65C14;stop-opacity:0.84"/>
		<stop offset="1" style="stop-color:#C65C14"/>
	</linearGradient>
	<path style="opacity:0.32;fill:url(#SVGID_00000006684748880376828900000012674830644554779065_);enable-background:new    ;" d="&#10;&#9;&#9;M114,352c10.7-5.8,20.9-12.7,31.5-18.6L107,312.1l-30.3,18.1C87.9,336.1,98.5,342.4,114,352z"/>
</g>
<g id="Lines_data-processing-93-34fd1">
	
		<rect x="173" y="222.2" transform="matrix(0.8645 -0.5026 0.5026 0.8645 -81.4894 144.1736)" class="st4_data-processing-93-34fd1" width="107.3" height="2"/>
	<polygon class="st4_data-processing-93-34fd1" points="141.8,274.5 140.8,272.8 190.4,244 190.4,156.4 192.4,156.4 192.4,245.1 &#9;"/>
	<polygon class="st4_data-processing-93-34fd1" points="284.7,300.2 283.7,298.5 368.4,249.6 318.4,220.9 319.4,219.2 372.4,249.6 &#9;"/>
	<path class="st4_data-processing-93-34fd1" d="M185,357l-0.5-0.3c-0.4-0.2-43.9-24.2-45.2-24.9l1-1.7l44.7,24.5l67.8-37.2l1,1.8L185,357z"/>
</g>
<g id="Server_data-processing-93-34fd1">
	<polyline class="st5_data-processing-93-34fd1" points="174.5,258.5 174.5,316.7 129.4,342.7 92.7,320.9 92.7,266.9 &#9;"/>
	<polygon class="st5_data-processing-93-34fd1" points="129.4,342.7 129.4,285.3 92.7,263.8 92.7,320.9 &#9;"/>
	<polygon class="st5_data-processing-93-34fd1" points="137.4,236.6 174.5,258.5 129.4,285.3 92.7,263.8 &#9;"/>
	<polygon class="st6_data-processing-93-34fd1" points="137.4,236.6 174.5,258.5 129.4,285.3 92.7,263.8 &#9;"/>
	<polygon class="st7_data-processing-93-34fd1" points="168.6,268.1 168.6,280.1 134.8,299.4 134.8,287.6 &#9;"/>
	
		<ellipse transform="matrix(0.2892 -0.9573 0.9573 0.2892 -178.8573 339.3154)" class="st8_data-processing-93-34fd1" cx="139.1" cy="290.1" rx="1.4" ry="0.9"/>
	
		<ellipse transform="matrix(0.2892 -0.9573 0.9573 0.2892 -174.3918 341.598)" class="st0_data-processing-93-34fd1" cx="142.8" cy="288.2" rx="1.4" ry="0.9"/>
	<polygon class="st9_data-processing-93-34fd1" points="144.8,288.6 144.7,288.4 165.5,276.4 165.6,276.6 &#9;"/>
	<polygon class="st7_data-processing-93-34fd1" points="169.4,285 169.4,297 135.6,316.3 135.6,304.5 &#9;"/>
	
		<ellipse transform="matrix(0.2892 -0.9573 0.9573 0.2892 -193.5049 352.8939)" class="st8_data-processing-93-34fd1" cx="140.9" cy="306.7" rx="1.4" ry="0.9"/>
	
		<ellipse transform="matrix(0.2892 -0.9573 0.9573 0.2892 -189.8508 354.4235)" class="st0_data-processing-93-34fd1" cx="143.7" cy="305" rx="1.4" ry="0.9"/>
	<polygon class="st9_data-processing-93-34fd1" points="145.6,305.5 145.5,305.2 166.3,293.3 166.4,293.5 &#9;"/>
	<polygon class="st7_data-processing-93-34fd1" points="169.4,301.8 169.4,313.9 135.6,333.1 135.6,321.3 &#9;"/>
	
		<ellipse transform="matrix(0.2892 -0.9573 0.9573 0.2892 -210.3449 364.0725)" class="st8_data-processing-93-34fd1" cx="140" cy="323.7" rx="1.4" ry="0.9"/>
	<ellipse transform="matrix(0.2892 -0.9573 0.9573 0.2892 -206.694 365.622)" class="st0_data-processing-93-34fd1" cx="142.9" cy="322" rx="1.4" ry="0.9"/>
	<polygon class="st9_data-processing-93-34fd1" points="145.6,322.3 145.5,322.1 166.3,310.1 166.4,310.3 &#9;"/>
	<polygon class="st7_data-processing-93-34fd1" points="129.2,305.5 129.2,305.5 92.7,283.9 92.8,283.7 129.2,305.2 174.4,279 174.5,279.2 &#9;"/>
	<polygon class="st7_data-processing-93-34fd1" points="129.2,322.4 129.2,322.3 92.7,300.8 92.8,300.5 129.2,322.1 174.4,295.8 174.5,296 &#9;"/>
</g>
<g id="Cloud_data-processing-93-34fd1">
	<path class="st5_data-processing-93-34fd1" d="M224.4,131.1c-0.7-0.9-10.1-6.5-10.1-6.5l0,0c-1.9-2.1-5.5-1.4-10.2,2.7c0,0-0.2-4.5-5.5-5.2s-6.9,1.7-6.9,1.7&#10;&#9;&#9;s-1.8-8.5-12.6-5.3c-9.7,2.9-8.4,12.7-8.4,12.7s-6.1-1.5-10.9,5.1c-2.9,4.2-4.5,9.3-4.5,14.4c0,0-10.2,3.7-11.5,12.9&#10;&#9;&#9;c-0.1,0.8-0.2,1.6-0.2,2.4v0.2c0,2,0.2,4,0.6,6c0.2,1.1,0.9,2.1,1.9,2.7l10.8,6.1c0.3-2.7-0.1-5.4-1.1-7.9l53.4-31&#10;&#9;&#9;c2.5-2.3,4.5-5.2,5.8-8.4l4.1-1.1C219.2,132.9,225.1,131.9,224.4,131.1L224.4,131.1z"/>
	<path class="st8_data-processing-93-34fd1" d="M224.4,131.1c-0.7-0.9-10.1-6.5-10.1-6.5l0,0c-1.9-2.1-5.5-1.4-10.2,2.7c0,0-0.2-4.5-5.5-5.2s-6.9,1.7-6.9,1.7&#10;&#9;&#9;s-1.8-8.5-12.6-5.3c-9.7,2.9-8.4,12.7-8.4,12.7s-6.1-1.5-10.9,5.1c-2.9,4.2-4.5,9.3-4.5,14.4c0,0-10.2,3.7-11.5,12.9&#10;&#9;&#9;c-0.1,0.8-0.2,1.6-0.2,2.4v0.2c0,2,0.2,4,0.6,6c0.2,1.1,0.9,2.1,1.9,2.7l10.8,6.1c0.3-2.7-0.1-5.4-1.1-7.9l53.4-31&#10;&#9;&#9;c2.5-2.3,4.5-5.2,5.8-8.4l4.1-1.1C219.2,132.9,225.1,131.9,224.4,131.1L224.4,131.1z"/>
	<path class="st4_data-processing-93-34fd1" d="M162.8,182l56.8-33c0,0,7-6.1,6.5-13s-5-8-11.8-2c0,0-0.1-5.7-5.5-5.2c-3,0.2-5.7,1.7-7.4,4.1&#10;&#9;&#9;c0,0,1.1-10.2-9.7-7c-5.6,1.6-9.8,6.3-10.7,12.1c0,0-6.1-1.5-10.9,5.1c-2.9,4.2-4.5,9.3-4.5,14.4c0,0-10.2,3.7-11.5,12.9&#10;&#9;&#9;S157.5,183.9,162.8,182L162.8,182z"/>
</g>
<g id="Arrow_data-processing-93-34fd1">
	<polygon class="st5_data-processing-93-34fd1" points="197.7,343.7 193.2,352.6 210.1,351.3 &#9;"/>
	<polygon class="st5_data-processing-93-34fd1" points="193.2,349.1 193.2,352.6 198.4,351.3 198.4,347.9 &#9;"/>
	<polygon class="st5_data-processing-93-34fd1" points="197.7,340.2 193.2,349.1 210.1,347.8 &#9;"/>
	<polygon class="st5_data-processing-93-34fd1" points="210.1,347.8 210.1,351.3 202.4,351.3 202.8,348.4 &#9;"/>
	<polygon class="st5_data-processing-93-34fd1" points="215.5,334.4 210.9,343.3 227.8,342 &#9;"/>
	<polygon class="st5_data-processing-93-34fd1" points="210.9,339.8 210.9,343.3 216.1,342 216.1,338.5 &#9;"/>
	<polygon class="st5_data-processing-93-34fd1" points="215.5,330.9 210.9,339.8 227.8,338.5 &#9;"/>
	<polygon class="st5_data-processing-93-34fd1" points="227.8,338.5 227.8,342 220.1,342 220.5,339 &#9;"/>
</g>
<g id="Character_data-processing-93-34fd1">
	<path class="st10_data-processing-93-34fd1 targetColor" d="M348.2,176.3c4.5,3.5,9.9,0.7,13.7-2.3c3.1-2.5,6.3-6.1,9.8-8.7c0,0.7-0.1,1.4-0.2,2.1l-0.8,6.9l-1.4,12.3&#10;&#9;&#9;c0,0.3,0,0.7-0.1,1c-5.9,7.6-24.5,4.6-24.5,4.6c-0.9-2.2,0.7-4.1,0-6.4s-3.8-9.2-0.8-11.1c0.7-0.4,1.6-0.3,2.3,0.1&#10;&#9;&#9;C346.9,175.2,347.6,175.7,348.2,176.3L348.2,176.3z" style="fill: rgb(104, 225, 253);"/>
	<path class="st11_data-processing-93-34fd1" d="M333.2,252.9c0,0,1.7,9.5-1.1,10.6s-14.1,9.9-12.4,13.5c3.9,8.1,27-9.5,27-9.5l-2.9-20.1"/>
	<path class="st12_data-processing-93-34fd1" d="M347.8,216.5c0,1.8,1.6,33.5,1.6,33.5s-12.8,11.9-22.4,11.1l-4.7-30.7"/>
	<path class="st12_data-processing-93-34fd1" d="M370.4,242.1c0,0-17.1,2-27.1-8.4c-5.9-6.1-16.9-16.4-16.9-16.4l40.7-3"/>
	<path class="st11_data-processing-93-34fd1" d="M410.3,226.6c0,0,5.2-3.8,7.2-3.2s2.7,22.3,1.4,23.6s-5.9,6.3-8.5,5.2s-4.1-5.2-4.1-5.2"/>
	<path class="st12_data-processing-93-34fd1" d="M362.5,213.3l31,1.9l-5.9,21.8l20-15.1c3.9,4.1,3.2,8.6,3.5,14c0.3,3.6-0.1,7.1-1,10.6&#10;&#9;&#9;c-0.1,0.4-0.2,0.7-0.4,1.1c-1.9,1.7-4,3.2-5.5,4.4c-3.6,2.8-7.1,5.8-10.6,8.7c-5,4.1-9.7,8-16,9.9s-17.4-2.8-18.6-10.2&#10;&#9;&#9;c-2.3-13.2,1.7-34,3.6-47.1L362.5,213.3z"/>
	<path class="st10_data-processing-93-34fd1 targetColor" d="M364,200l31.8-7.9c0,0-1,13.8-2.2,23c-5.7,2.5-12.6,2.5-18.6,1.6c-4.3-0.5-8.5-1.7-12.4-3.5&#10;&#9;&#9;c-1.3-0.7-2.5-1.4-3.6-2.2C359.4,207.7,363.6,203.4,364,200L364,200z" style="fill: rgb(104, 225, 253);"/>
	<path class="st10_data-processing-93-34fd1 targetColor" d="M356.7,206.7c0,2.5,0.7,8.6,0.8,11.1c13.4-3.6,42.4-13.3,44.3-33.2c0.3-2.7,0-5.4-0.9-8&#10;&#9;&#9;c-1.7-2.7-4.4-4.9-6.7-7c-3.4-3.2-7.6-6.4-12.4-7.2c-5.8-1-10.4,2.7-14.5,6.6c-1.6,3.6,2.9,7.2,2.4,10.8l-8.1,24.3L356.7,206.7" style="fill: rgb(104, 225, 253);"/>
	<path class="st13_data-processing-93-34fd1" d="M381.7,153.8c0,0-3.5,16.4,1.9,18.4s10.9-1.7,11.8-4.8c0.6-2.6,0.7-5.2,0.4-7.8&#10;&#9;&#9;C395.8,159.7,391.8,153.9,381.7,153.8L381.7,153.8z"/>
	<path class="st8_data-processing-93-34fd1" d="M381.1,150.9c-0.2-4,5.4-6.5,7.9-3.1c1.3-1.1,3-1.6,4.7-1.3c2.4,0.4,3.2,2.1,3,4.3c1.4,0,2.7,0.6,3.5,1.7&#10;&#9;&#9;c0.9,1.3,0.9,3.1,0,4.4c1.7,0.7,2.7,2.5,2.4,4.3c-0.1,0.8-0.4,1.6-0.8,2.3c0.1,0.3,0.2,0.5,0.2,0.8c0.2,1.5-0.5,3-1.8,3.8&#10;&#9;&#9;c-0.7,0.5-1.6,0.8-2.5,0.7c-0.6,1.1-1.8,1.8-3.1,1.8c-1.6-0.1-3-1.4-3.1-3c0-0.4,0-0.9,0.2-1.3c-0.7-1.6-0.9-3.5-0.4-5.2&#10;&#9;&#9;c-0.2-0.1-0.5-0.2-0.7-0.3c-0.6-0.5-1.1-1.1-1.3-1.9c-0.7,0.3-1.5,0.3-2.3,0.2c-0.7-0.2-1.4-0.7-1.6-1.4c-2.1,0.5-4.3-0.3-5.5-2&#10;&#9;&#9;C379.2,154,379.7,152,381.1,150.9L381.1,150.9z"/>
	<path class="st13_data-processing-93-34fd1" d="M390.4,165.1c0.2-1,0.8-1.9,1.7-2.5c0.8-0.7,2.1-0.7,2.8,0.2c0,0,0,0.1,0.1,0.1v0.1c0.5,0.8,0.5,1.9-0.1,2.7&#10;&#9;&#9;c-0.7,0.9-1.9,0.9-2.9,1.4c-0.6,0.2-1-0.4-0.8-0.9c-0.4,0-0.8-0.4-0.8-0.8c0,0,0,0,0,0C390.3,165.2,390.3,165.1,390.4,165.1&#10;&#9;&#9;L390.4,165.1z"/>
	<path class="st11_data-processing-93-34fd1" d="M382.8,161c0.1-0.4,0.6-0.2,0.6,0.2l-0.5,2.5c-0.1,0.4-0.2,0.8-0.2,1.2c0,0.7,0.4,0.8,0.9,1.2&#10;&#9;&#9;c0.1,0.1,0.2,0.3,0,0.4c-0.1,0.1-0.2,0.1-0.4,0.1c-0.7-0.4-1.3-0.6-1.3-1.5C382.2,163.7,382.5,162.3,382.8,161L382.8,161z"/>
	<path class="st11_data-processing-93-34fd1" d="M381.4,160.3c0.2,0,0.3,0.1,0.3,0.3c0,0.2-0.1,0.3-0.3,0.3l0,0c-0.2,0-0.3-0.1-0.3-0.3&#10;&#9;&#9;C381.1,160.4,381.3,160.3,381.4,160.3z"/>
	<path class="st11_data-processing-93-34fd1" d="M387.2,162.2c0.2,0,0.3,0.1,0.3,0.3s-0.1,0.3-0.3,0.3c-0.2,0-0.3-0.1-0.3-0.3&#10;&#9;&#9;C386.9,162.4,387.1,162.2,387.2,162.2L387.2,162.2z"/>
	<path class="st11_data-processing-93-34fd1" d="M384.2,167.7c1,0.4,2.1,0,2.6-0.8c0.1-0.1,0.3-0.1,0.4,0c0.1,0.1,0.1,0.2,0.1,0.4c-0.7,1.2-2.2,1.6-3.4,1.1&#10;&#9;&#9;C383.5,168.1,383.8,167.6,384.2,167.7L384.2,167.7z"/>
	<path class="st11_data-processing-93-34fd1" d="M360,221.8c0.2-0.9,1.6-0.5,1.4,0.4c-1.3,7-2.3,14.1-2.9,21.3c-0.1,1-1.6,1-1.5,0&#10;&#9;&#9;C357.6,236.2,358.6,228.9,360,221.8L360,221.8z"/>
	<path class="st11_data-processing-93-34fd1" d="M381.6,257.8c2.2-6.5,3.9-13.1,5.2-19.8c0.2-0.9,1.6-0.5,1.4,0.4c-1.3,6.7-3.1,13.3-5.2,19.8&#10;&#9;&#9;C382.7,259.1,381.2,258.8,381.6,257.8z"/>
	<path class="st11_data-processing-93-34fd1" d="M367.8,215c10.7-3.2,20.3-9.2,27.9-17.3c0.5-0.5,1.3,0.3,0.8,0.8c-7.7,8.3-17.5,14.3-28.4,17.6&#10;&#9;&#9;c-0.3,0-0.6-0.2-0.6-0.5C367.5,215.3,367.6,215.1,367.8,215L367.8,215z"/>
	<path class="st11_data-processing-93-34fd1" d="M356,206c7.4-3,14.5-6.9,21-11.6c0.6-0.4,1.1,0.5,0.6,1c-6.5,4.8-13.6,8.7-21.2,11.8&#10;&#9;&#9;C355.7,207.4,355.4,206.3,356,206z"/>
	<path class="st11_data-processing-93-34fd1" d="M363,196.1l5.1-15.7c0.1-0.3,0.4-0.5,0.7-0.4c0.3,0.1,0.5,0.4,0.4,0.7l0,0l-5.2,15.7c0,0.3-0.3,0.5-0.6,0.5&#10;&#9;&#9;s-0.5-0.3-0.5-0.6C363,196.3,363,196.2,363,196.1L363,196.1z"/>
	<polyline class="st5_data-processing-93-34fd1" points="346.4,166.4 346.4,224.5 301.3,250.5 264.6,228.7 264.6,174.7 &#9;"/>
	<polygon class="st5_data-processing-93-34fd1" points="301.3,250.5 301.3,193.1 264.6,171.7 264.6,228.7 &#9;"/>
	<polygon class="st5_data-processing-93-34fd1" points="309.3,144.4 346.4,166.4 301.3,193.1 264.6,171.7 &#9;"/>
	<polygon class="st6_data-processing-93-34fd1" points="309.3,144.4 346.4,166.4 301.3,193.1 264.6,171.7 &#9;"/>
	<polygon class="st7_data-processing-93-34fd1" points="340.5,175.9 340.5,188 306.7,207.2 306.7,195.4 &#9;"/>
	<ellipse transform="matrix(0.2892 -0.9573 0.9573 0.2892 31.2563 437.1651)" class="st8_data-processing-93-34fd1" cx="310" cy="197.5" rx="1.4" ry="0.9"/>
	
		<ellipse transform="matrix(0.2892 -0.9573 0.9573 0.2892 34.8959 438.6861)" class="st0_data-processing-93-34fd1" cx="312.8" cy="195.8" rx="1.4" ry="0.9"/>
	<polygon class="st9_data-processing-93-34fd1" points="316.7,196.4 316.6,196.2 337.4,184.2 337.5,184.4 &#9;"/>
	<polygon class="st7_data-processing-93-34fd1" points="341.3,192.8 341.3,204.8 307.5,224.1 307.5,212.3 &#9;"/>
	
		<ellipse transform="matrix(0.2892 -0.9573 0.9573 0.2892 15.7763 449.9329)" class="st8_data-processing-93-34fd1" cx="310.9" cy="214.3" rx="1.4" ry="0.9"/>
	
		<ellipse transform="matrix(0.2892 -0.9573 0.9573 0.2892 19.4232 451.4713)" class="st0_data-processing-93-34fd1" cx="313.7" cy="212.7" rx="1.4" ry="0.9"/>
	<polygon class="st9_data-processing-93-34fd1" points="317.5,213.3 317.4,213.1 338.2,201.1 338.3,201.3 &#9;"/>
	<polygon class="st7_data-processing-93-34fd1" points="341.3,209.7 341.3,221.7 307.5,240.9 307.5,229.1 &#9;"/>
	<ellipse transform="matrix(0.2892 -0.9573 0.9573 0.2892 -0.2868 461.948)" class="st8_data-processing-93-34fd1" cx="310.9" cy="231.2" rx="1.4" ry="0.9"/>
	<ellipse transform="matrix(0.2892 -0.9573 0.9573 0.2892 3.4037 463.4743)" class="st0_data-processing-93-34fd1" cx="313.8" cy="229.4" rx="1.4" ry="0.9"/>
	<polygon class="st9_data-processing-93-34fd1" points="317.5,230.1 317.4,229.9 338.2,217.9 338.3,218.2 &#9;"/>
	<polygon class="st7_data-processing-93-34fd1" points="301.1,213.3 301.1,213.3 264.6,191.8 264.7,191.5 301.1,213 346.3,186.8 346.4,187 &#9;"/>
	<polygon class="st7_data-processing-93-34fd1" points="301.1,230.2 301.1,230.1 264.6,208.6 264.7,208.4 301.1,229.9 346.3,203.7 346.4,203.9 &#9;"/>
	<path class="st13_data-processing-93-34fd1" d="M347.2,203.1c1.4,0,2.8,0.8,3.4,2.2c0.5,0.8,0.8,1.7,1.4,2.5c0.9,1.3,1.6,0.8,2.9,0.2s2.6,1.4,1.3,2.1&#10;&#9;&#9;c-1.1,0.7-2.3,1.1-3.6,1.3c-0.8-0.2-1.5-0.7-1.9-1.4c-0.1,0.6-0.7,0.9-1.3,0.8c0,0,0,0,0,0c-0.2-0.1-0.4-0.2-0.6-0.4&#10;&#9;&#9;c-1.1-1.3-2.6-2.7-3-4.4c-0.4-1.1,0.1-2.3,1.1-2.8c0,0,0,0,0,0C347,203.2,347.1,203.2,347.2,203.1L347.2,203.1z"/>
	<path class="st13_data-processing-93-34fd1" d="M340,212.8c5.5-1.9,11.1-3.7,16.6-5.6c0.3,2.8,0.5,5.6,0.7,8.5c-2.4,2.9-5.1,5.4-8.2,7.6&#10;&#9;&#9;c-0.7,0.4-1.5,0.1-1.8-0.5c-0.1-0.2-0.2-0.4-0.2-0.6c0-0.5,0.2-1,0.4-1.5c-1.1,0.8-2.3,1.4-3.6,1.9c-0.7,0.1-1.4-0.3-1.6-1&#10;&#9;&#9;c0,0,0,0,0,0c-0.1-0.4,0-0.9,0.3-1.2l1.1-0.9c-0.9,0.2-1.9,0.2-2.8,0.1c-1.4-0.1-1.9-2.3-0.4-2.6c0.6-0.1,1.3-0.3,1.9-0.5&#10;&#9;&#9;c-1.1-0.1-2.2-0.6-3.1-1.3c-0.5-0.5-0.6-1.4,0-1.9C339.6,212.9,339.8,212.8,340,212.8L340,212.8z"/>
</g>
<g id="Gears_data-processing-93-34fd1">
	<path class="st10_data-processing-93-34fd1 targetColor" d="M184.6,251.5c0.1,0.2,0.6,2.1,1,1.7s2.5,0.5,2.5,0.5l5.9-7.6l-0.8-2.4h-5.3" style="fill: rgb(104, 225, 253);"/>
	<path class="st10_data-processing-93-34fd1 targetColor" d="M213.1,219.2l0.6-1.9l6.2-3.4v-10.6c0-0.2-6,3.5-6,3.5l-0.3-0.6c-0.3-1.6-1-3.2-1.8-4.6l4.4-8.1l-5.6-4.2&#10;&#9;&#9;l-4.1,8.3l0,0c-1.5-0.3-3.1-0.3-4.6,0.1v-8l-7.9,4.4v8.4c-1.6,1.5-3,3.1-4.2,4.9l-4.8-3.1l-5.4,10.3l4.3,3.4l-0.4,1.7&#10;&#9;&#9;c-0.6,1.8-1,3.7-1.3,5.6l-6.3,3.5v10.5l6.1-3.6c0.3,1.9,1,3.8,2,5.4l-4.5,7.7l5.8,4.4l4.1-7.9h5v7.9l7.6-4.6v-7.8&#10;&#9;&#9;c1.7-1.7,3.3-3.6,4.6-5.7l4.6,3.1l5.5-10.5l-4.6-3.4l0.4-1.6C212.4,221.6,212.8,220.4,213.1,219.2L213.1,219.2z" style="fill: rgb(104, 225, 253);"/>
	<polyline class="st10_data-processing-93-34fd1 targetColor" points="227.5,207.7 220.5,203.5 218.7,206.1 221.4,211.8 &#9;" style="fill: rgb(104, 225, 253);"/>
	<polyline class="st10_data-processing-93-34fd1 targetColor" points="218.3,242.7 213.1,240.5 213.1,237.4 &#9;" style="fill: rgb(104, 225, 253);"/>
	<polygon class="st10_data-processing-93-34fd1 targetColor" points="201.6,257.6 194,253.2 195.9,247.5 202.8,249.5 &#9;" style="fill: rgb(104, 225, 253);"/>
	<polygon class="st10_data-processing-93-34fd1 targetColor" points="210.6,189.4 218.2,193.8 214,202.1 209.4,202.2 208.4,193.8 &#9;" style="fill: rgb(104, 225, 253);"/>
	
		<ellipse transform="matrix(0.3657 -0.9307 0.9307 0.3657 -79.5506 334.8528)" class="st10_data-processing-93-34fd1 targetColor" cx="205.9" cy="225.8" rx="5.9" ry="3.4" style="fill: rgb(104, 225, 253);"/>
	<polygon class="st10_data-processing-93-34fd1 targetColor" points="193.9,194.2 201.5,198.6 209.4,194.2 201.8,189.8 &#9;" style="fill: rgb(104, 225, 253);"/>
	<polygon class="st10_data-processing-93-34fd1 targetColor" points="192.5,208.8 184.9,204.4 179.4,214.7 187.1,219.1 &#9;" style="fill: rgb(104, 225, 253);"/>
	<polygon class="st10_data-processing-93-34fd1 targetColor" points="179.1,248.9 186.8,253.3 192.5,257.6 184.9,253.2 &#9;" style="fill: rgb(104, 225, 253);"/>
	<path class="st14_data-processing-93-34fd1" d="M184.6,251.5c0.1,0.2,0.6,2.1,1,1.7s2.5,0.5,2.5,0.5l5.9-7.6l-0.8-2.4h-5.3"/>
	<path class="st10_data-processing-93-34fd1 targetColor" d="M213.1,219.2l0.6-1.9l6.2-3.4v-10.6c0-0.2-6,3.5-6,3.5l-0.3-0.6c-0.3-1.6-1-3.2-1.8-4.6l4.4-8.1l-5.6-4.2&#10;&#9;&#9;l-4.1,8.3l0,0c-1.5-0.3-3.1-0.3-4.6,0.1v-8l-7.9,4.4v8.4c-1.6,1.5-3,3.1-4.2,4.9l-4.8-3.1l-5.4,10.3l4.3,3.4l-0.4,1.7&#10;&#9;&#9;c-0.6,1.8-1,3.7-1.3,5.6l-6.3,3.5v10.5l6.1-3.6c0.3,1.9,1,3.8,2,5.4l-4.5,7.7l5.8,4.4l4.1-7.9h5v7.9l7.6-4.6v-7.8&#10;&#9;&#9;c1.7-1.7,3.3-3.6,4.6-5.7l4.6,3.1l5.5-10.5l-4.6-3.4l0.4-1.6C212.4,221.6,212.8,220.4,213.1,219.2L213.1,219.2z" style="fill: rgb(104, 225, 253);"/>
	<polyline class="st14_data-processing-93-34fd1" points="227.5,207.7 220.5,203.5 218.7,206.1 221.4,211.8 &#9;"/>
	<polyline class="st10_data-processing-93-34fd1 targetColor" points="218.3,242.7 213.1,240.5 213.1,237.4 &#9;" style="fill: rgb(104, 225, 253);"/>
	<polygon class="st10_data-processing-93-34fd1 targetColor" points="201.6,257.6 194,253.2 195.9,247.5 202.8,249.5 &#9;" style="fill: rgb(104, 225, 253);"/>
	<polygon class="st10_data-processing-93-34fd1 targetColor" points="210.6,189.4 218.2,193.8 214,202.1 209.4,202.2 208.4,193.8 &#9;" style="fill: rgb(104, 225, 253);"/>
	
		<ellipse transform="matrix(0.3657 -0.9307 0.9307 0.3657 -79.5506 334.8528)" class="st10_data-processing-93-34fd1 targetColor" cx="205.9" cy="225.8" rx="5.9" ry="3.4" style="fill: rgb(104, 225, 253);"/>
	<polygon class="st10_data-processing-93-34fd1 targetColor" points="192.5,208.8 184.9,204.4 179.4,214.7 187.1,219.1 &#9;" style="fill: rgb(104, 225, 253);"/>
	<polygon class="st10_data-processing-93-34fd1 targetColor" points="179.1,248.9 186.8,253.3 192.5,257.6 184.9,253.2 &#9;" style="fill: rgb(104, 225, 253);"/>
	<path class="st14_data-processing-93-34fd1" d="M213.1,219.2l0.6-1.9l6.2-3.4v-10.6c0-0.2-6,3.5-6,3.5l-0.3-0.6c-0.3-1.6-1-3.2-1.8-4.6l4.4-8.1l-5.6-4.2&#10;&#9;&#9;l-4.1,8.3l0,0c-1.5-0.3-3.1-0.3-4.6,0.1v-8l-7.9,4.4v8.4c-1.6,1.5-3,3.1-4.2,4.9l-4.8-3.1l-5.4,10.3l4.3,3.4l-0.4,1.7&#10;&#9;&#9;c-0.6,1.8-1,3.7-1.3,5.6l-6.3,3.5v10.5l6.1-3.6c0.3,1.9,1,3.8,2,5.4l-4.5,7.7l5.8,4.4l4.1-7.9h5v7.9l7.6-4.6v-7.8&#10;&#9;&#9;c1.7-1.7,3.3-3.6,4.6-5.7l4.6,3.1l5.5-10.5l-4.6-3.4l0.4-1.6C212.4,221.6,212.8,220.4,213.1,219.2L213.1,219.2z"/>
	<polyline class="st15_data-processing-93-34fd1" points="218.3,242.7 213.1,240.5 213.1,237.4 &#9;"/>
	<polygon class="st15_data-processing-93-34fd1" points="201.6,257.6 194,253.2 195.9,247.5 202.8,249.5 &#9;"/>
	
		<ellipse transform="matrix(0.3657 -0.9307 0.9307 0.3657 -79.5506 334.8528)" class="st15_data-processing-93-34fd1" cx="205.9" cy="225.8" rx="5.9" ry="3.4"/>
	<polygon class="st15_data-processing-93-34fd1" points="192.5,208.8 184.9,204.4 179.4,214.7 187.1,219.1 &#9;"/>
	<polygon class="st15_data-processing-93-34fd1" points="179.1,248.9 186.8,253.3 192.5,257.6 184.9,253.2 &#9;"/>
	<polyline class="st15_data-processing-93-34fd1" points="218.3,242.7 213.1,240.5 213.1,237.4 &#9;"/>
	<polygon class="st14_data-processing-93-34fd1" points="201.6,257.6 194,253.2 195.9,247.5 202.8,249.5 &#9;"/>
	<path class="st10_data-processing-93-34fd1 targetColor" d="M220.7,223.6l0.6-1.9l6.2-3.4v-10.6c0-0.2-6,3.5-6,3.5l-0.3-0.6c-0.3-1.6-1-3.2-1.8-4.6l4.4-8.1l-5.6-4.2&#10;&#9;&#9;l-4.2,8.3l0,0c-1.5-0.3-3.1-0.3-4.6,0.1v-8l-7.9,4.4v8.4c-1.6,1.5-3,3.1-4.2,4.9l-4.8-3.1l-5.4,10.3l4.3,3.4l-0.4,1.7&#10;&#9;&#9;c-0.6,1.8-1,3.7-1.3,5.6l-6.4,3.6v10.5l6.1-3.6c0.3,1.9,1,3.8,2,5.4l-4.5,7.7l5.8,4.4l4.1-7.9h5v7.9l7.6-4.6v-7.8&#10;&#9;&#9;c1.7-1.7,3.3-3.6,4.6-5.7l4.6,3.1l5.5-10.5l-4.6-3.4l0.4-1.6C220.1,226,220.4,224.8,220.7,223.6L220.7,223.6z" style="fill: rgb(104, 225, 253);"/>
	
		<ellipse transform="matrix(0.3657 -0.9307 0.9307 0.3657 -79.5506 334.8528)" class="st14_data-processing-93-34fd1" cx="205.9" cy="225.8" rx="5.9" ry="3.4"/>
	<polygon class="st14_data-processing-93-34fd1" points="179.1,248.9 186.8,253.3 192.5,257.6 184.9,253.2 &#9;"/>
	<polygon class="st10_data-processing-93-34fd1 targetColor" points="193.9,194.2 201.5,198.6 209.4,194.2 201.8,189.8 &#9;" style="fill: rgb(104, 225, 253);"/>
	<polygon class="st14_data-processing-93-34fd1" points="193.9,194.2 201.5,198.6 209.4,194.3 201.8,189.8 &#9;"/>
	<polygon class="st10_data-processing-93-34fd1 targetColor" points="175.7,228.9 183.3,233.3 183.3,243.8 175.7,239.4 &#9;" style="fill: rgb(104, 225, 253);"/>
	<polygon class="st14_data-processing-93-34fd1" points="175.7,228.9 183.3,233.3 183.3,243.8 175.7,239.4 &#9;"/>
	<path class="st10_data-processing-93-34fd1 targetColor" d="M222.6,187.5c0,0.1,0.3,1.2,0.6,1s1.4,0.3,1.4,0.3l3.3-4.2l-0.4-1.4h-3" style="fill: rgb(104, 225, 253);"/>
	<path class="st10_data-processing-93-34fd1 targetColor" d="M238.6,169.2l0.3-1.1l3.5-1.9v-6c0-0.1-3.4,2-3.4,2l-0.2-0.3c-0.2-0.9-0.5-1.8-1-2.6l2.5-4.6l-3.1-2.4&#10;&#9;&#9;l-2.4,4.7l0,0c-0.9-0.2-1.7-0.2-2.6,0v-4.4l-4.5,2.5v4.7c-0.9,0.8-1.7,1.8-2.4,2.8l-2.7-1.7l-3.1,5.8l2.4,1.9l-0.2,1&#10;&#9;&#9;c-0.3,1-0.6,2.1-0.8,3.1l-3.6,2v5.9l3.5-2.1c0.2,1.1,0.5,2.1,1.1,3l-2.6,4.4l3.3,2.5l2.3-4.5h2.9v4.5l4.3-2.6v-4.4&#10;&#9;&#9;c0.9-1,1.8-2.1,2.5-3.2l2.5,1.8l3.1-5.9l-2.5-1.9l0.2-0.9C238.3,170.6,238.5,169.9,238.6,169.2L238.6,169.2z" style="fill: rgb(104, 225, 253);"/>
	<polyline class="st10_data-processing-93-34fd1 targetColor" points="246.8,162.7 242.8,160.3 241.8,161.8 243.4,165 &#9;" style="fill: rgb(104, 225, 253);"/>
	<polyline class="st10_data-processing-93-34fd1 targetColor" points="241.6,182.5 238.7,181.3 238.7,179.5 &#9;" style="fill: rgb(104, 225, 253);"/>
	<polygon class="st10_data-processing-93-34fd1 targetColor" points="232.2,190.9 227.9,188.4 228.9,185.2 232.8,186.3 &#9;" style="fill: rgb(104, 225, 253);"/>
	<polygon class="st10_data-processing-93-34fd1 targetColor" points="237.2,152.4 241.6,154.9 239.2,159.6 236.6,159.6 236,154.9 &#9;" style="fill: rgb(104, 225, 253);"/>
	
		<ellipse transform="matrix(0.3657 -0.9307 0.9307 0.3657 -12.1508 328.0322)" class="st10_data-processing-93-34fd1 targetColor" cx="234.6" cy="172.9" rx="3.4" ry="1.9" style="fill: rgb(104, 225, 253);"/>
	<polygon class="st10_data-processing-93-34fd1 targetColor" points="227.8,155.1 232.1,157.6 236.6,155.1 232.3,152.6 &#9;" style="fill: rgb(104, 225, 253);"/>
	<polygon class="st10_data-processing-93-34fd1 targetColor" points="227,163.4 222.7,160.9 219.6,166.7 223.9,169.2 &#9;" style="fill: rgb(104, 225, 253);"/>
	<polygon class="st10_data-processing-93-34fd1 targetColor" points="219.5,186 223.8,188.5 227.1,190.9 222.7,188.4 &#9;" style="fill: rgb(104, 225, 253);"/>
	<path class="st14_data-processing-93-34fd1" d="M222.6,187.5c0,0.1,0.3,1.2,0.6,1s1.4,0.3,1.4,0.3l3.3-4.2l-0.4-1.4h-3"/>
	<path class="st10_data-processing-93-34fd1 targetColor" d="M238.6,169.2l0.3-1.1l3.5-1.9v-6c0-0.1-3.4,2-3.4,2l-0.2-0.3c-0.2-0.9-0.5-1.8-1-2.6l2.5-4.6l-3.1-2.4&#10;&#9;&#9;l-2.4,4.7l0,0c-0.9-0.2-1.7-0.2-2.6,0v-4.4l-4.5,2.5v4.7c-0.9,0.8-1.7,1.8-2.4,2.8l-2.7-1.7l-3.1,5.8l2.4,1.9l-0.2,1&#10;&#9;&#9;c-0.3,1-0.6,2.1-0.8,3.1l-3.6,2v5.9l3.5-2.1c0.2,1.1,0.5,2.1,1.1,3l-2.6,4.4l3.3,2.5l2.3-4.5h2.9v4.5l4.3-2.6v-4.4&#10;&#9;&#9;c0.9-1,1.8-2.1,2.5-3.2l2.5,1.8l3.1-5.9l-2.5-1.9l0.2-0.9C238.3,170.6,238.5,169.9,238.6,169.2L238.6,169.2z" style="fill: rgb(104, 225, 253);"/>
	<polyline class="st14_data-processing-93-34fd1" points="246.8,162.7 242.8,160.3 241.8,161.8 243.4,165 &#9;"/>
	<polyline class="st10_data-processing-93-34fd1 targetColor" points="241.6,182.5 238.7,181.3 238.7,179.5 &#9;" style="fill: rgb(104, 225, 253);"/>
	<polygon class="st10_data-processing-93-34fd1 targetColor" points="232.2,190.9 227.9,188.4 228.9,185.2 232.8,186.3 &#9;" style="fill: rgb(104, 225, 253);"/>
	<polygon class="st10_data-processing-93-34fd1 targetColor" points="237.2,152.4 241.6,154.9 239.2,159.6 236.6,159.6 236,154.9 &#9;" style="fill: rgb(104, 225, 253);"/>
	
		<ellipse transform="matrix(0.3657 -0.9307 0.9307 0.3657 -12.1508 328.0322)" class="st10_data-processing-93-34fd1 targetColor" cx="234.6" cy="172.9" rx="3.4" ry="1.9" style="fill: rgb(104, 225, 253);"/>
	<polygon class="st10_data-processing-93-34fd1 targetColor" points="227,163.4 222.7,160.9 219.6,166.7 223.9,169.2 &#9;" style="fill: rgb(104, 225, 253);"/>
	<polygon class="st10_data-processing-93-34fd1 targetColor" points="219.5,186 223.8,188.5 227.1,190.9 222.7,188.4 &#9;" style="fill: rgb(104, 225, 253);"/>
	<path class="st14_data-processing-93-34fd1" d="M238.6,169.2l0.3-1.1l3.5-1.9v-6c0-0.1-3.4,2-3.4,2l-0.2-0.3c-0.2-0.9-0.5-1.8-1-2.6l2.5-4.6l-3.1-2.4&#10;&#9;&#9;l-2.4,4.7l0,0c-0.9-0.2-1.7-0.2-2.6,0v-4.4l-4.5,2.5v4.7c-0.9,0.8-1.7,1.8-2.4,2.8l-2.7-1.7l-3.1,5.8l2.4,1.9l-0.2,1&#10;&#9;&#9;c-0.3,1-0.6,2.1-0.8,3.1l-3.6,2v5.9l3.5-2.1c0.2,1.1,0.5,2.1,1.1,3l-2.6,4.4l3.3,2.5l2.3-4.5h2.9v4.5l4.3-2.6v-4.4&#10;&#9;&#9;c0.9-1,1.8-2.1,2.5-3.2l2.5,1.8l3.1-5.9l-2.5-1.9l0.2-0.9C238.3,170.6,238.5,169.9,238.6,169.2L238.6,169.2z"/>
	<polyline class="st15_data-processing-93-34fd1" points="241.6,182.5 238.7,181.3 238.7,179.5 &#9;"/>
	<polygon class="st15_data-processing-93-34fd1" points="232.2,190.9 227.9,188.4 228.9,185.2 232.8,186.3 &#9;"/>
	
		<ellipse transform="matrix(0.3657 -0.9307 0.9307 0.3657 -12.1508 328.0322)" class="st15_data-processing-93-34fd1" cx="234.6" cy="172.9" rx="3.4" ry="1.9"/>
	<polygon class="st15_data-processing-93-34fd1" points="227,163.4 222.7,160.9 219.6,166.7 223.9,169.2 &#9;"/>
	<polygon class="st15_data-processing-93-34fd1" points="219.5,186 223.8,188.5 227.1,190.9 222.7,188.4 &#9;"/>
	<polyline class="st15_data-processing-93-34fd1" points="241.6,182.5 238.7,181.3 238.7,179.5 &#9;"/>
	<polygon class="st14_data-processing-93-34fd1" points="232.2,190.9 227.9,188.4 228.9,185.2 232.8,186.3 &#9;"/>
	<path class="st10_data-processing-93-34fd1 targetColor" d="M243,171.7l0.3-1.1l3.5-1.9v-6c0-0.1-3.4,2-3.4,2l-0.2-0.3c-0.2-0.9-0.5-1.8-1-2.6l2.5-4.6l-3.1-2.4l-2.3,4.7&#10;&#9;&#9;l0,0c-0.9-0.2-1.7-0.2-2.6,0v-4.5l-4.5,2.5v4.7c-0.9,0.8-1.7,1.8-2.4,2.8l-2.7-1.7l-3.1,5.8l2.4,1.9l-0.2,1c-0.3,1-0.6,2.1-0.8,3.1&#10;&#9;&#9;l-3.6,2v6l3.4-2c0.2,1.1,0.5,2.1,1.1,3l-2.5,4.4l3.3,2.5l2.3-4.5h2.8v4.4l4.3-2.6V184c0.9-1,1.8-2.1,2.4-3.2l2.5,1.8l3.1-5.9&#10;&#9;&#9;l-2.5-1.9l0.2-0.9C242.7,173.1,242.9,172.4,243,171.7L243,171.7z" style="fill: rgb(104, 225, 253);"/>
	
		<ellipse transform="matrix(0.3657 -0.9307 0.9307 0.3657 -12.1508 328.0322)" class="st14_data-processing-93-34fd1" cx="234.6" cy="172.9" rx="3.4" ry="1.9"/>
	<polygon class="st14_data-processing-93-34fd1" points="219.5,186 223.8,188.5 227.1,190.9 222.7,188.4 &#9;"/>
	<polygon class="st10_data-processing-93-34fd1 targetColor" points="227.8,155.1 232.1,157.6 236.6,155.1 232.3,152.6 &#9;" style="fill: rgb(104, 225, 253);"/>
	<polygon class="st14_data-processing-93-34fd1" points="227.8,155.1 232.1,157.6 236.6,155.1 232.3,152.6 &#9;"/>
	<polygon class="st10_data-processing-93-34fd1 targetColor" points="217.5,174.7 221.8,177.2 221.8,183.1 217.5,180.6 &#9;" style="fill: rgb(104, 225, 253);"/>
	<polygon class="st14_data-processing-93-34fd1" points="217.5,174.7 221.8,177.2 221.8,183.1 217.5,180.6 &#9;"/>
</g>
<g id="Laptop_data-processing-93-34fd1">
	<path class="st11_data-processing-93-34fd1" d="M281.6,290.6l33.7,20.9c1,0.6,1.3,1.9,0.7,2.9c-0.2,0.3-0.4,0.5-0.7,0.7L264,344c-1.4,0.8-3.2,0.8-4.7,0&#10;&#9;&#9;l-33.5-19.8c-2.4-2-2.2-5.8,0-5.9l50.8-27.8C278.2,289.7,280.1,289.7,281.6,290.6L281.6,290.6z"/>
	<polyline class="st11_data-processing-93-34fd1" points="316.2,311.6 316.2,313.3 315.4,314.4 &#9;"/>
	<path class="st9_data-processing-93-34fd1" d="M281.6,289.1l33.7,20.9c1,0.6,1.3,1.9,0.7,2.9c-0.2,0.3-0.4,0.5-0.7,0.7l-51.1,28.9c-1.4,0.8-3.2,0.8-4.7,0&#10;&#9;&#9;l-33.5-19.7c-1.2-0.7-1.7-2.3-1-3.5c0,0,0,0,0,0c0.2-0.4,0.6-0.7,0.9-1l50.8-29.2C278.2,288.2,280,288.2,281.6,289.1L281.6,289.1z"/>
	<path class="st11_data-processing-93-34fd1" d="M280.2,286.3c0,0-14-45.1-13.9-45.1s-0.4-2-2.9-0.9l-53.7,31.6c0,0-2.6,1.1-2.1,3.5s13.7,44.2,13.7,44.2&#10;&#9;&#9;c0.6,0.8,1.6,1.2,2.5,0.9c1.6-0.5,55.1-31.6,55.1-31.6C279.9,288.4,280.5,287.3,280.2,286.3L280.2,286.3z"/>
	<polygon class="st10_data-processing-93-34fd1 targetColor" points="265.4,244.4 210.4,276.5 221.8,314.7 277.5,283.6 &#9;" style="fill: rgb(104, 225, 253);"/>
	<path class="st10_data-processing-93-34fd1 targetColor" d="M283.6,293.9l12.3,7.7c0.7,0.4,0.9,1.4,0.5,2.1c-0.1,0.2-0.3,0.3-0.5,0.5l-44.2,25.1c-1.3,0.8-3,0.8-4.3,0&#10;&#9;&#9;c-2.8-1.7-7.7-4.6-10.7-6.5c-0.9-0.5-1.1-1.6-0.6-2.5c0,0,0,0,0,0c0.2-0.3,0.4-0.5,0.6-0.6l44.5-25.9&#10;&#9;&#9;C281.9,293.4,282.9,293.4,283.6,293.9L283.6,293.9z" style="fill: rgb(104, 225, 253);"/>
	<path class="st10_data-processing-93-34fd1 targetColor" d="M283,314.7l-15.4,8.7c-0.7,0.4-1,1.4-0.6,2.1c0.1,0.2,0.3,0.4,0.6,0.6l9.1,5.3c0.6,0.4,1.4,0.4,2,0l15.8-9&#10;&#9;&#9;c0.6-0.3,0.9-1.1,0.5-1.7c-0.1-0.2-0.3-0.4-0.5-0.5l-9.5-5.4C284.4,314.4,283.6,314.4,283,314.7z" style="fill: rgb(104, 225, 253);"/>
	<path class="st15_data-processing-93-34fd1" d="M283.6,293.9l12.3,7.7c0.7,0.4,0.9,1.4,0.5,2.1c-0.1,0.2-0.3,0.3-0.5,0.5l-44.2,25.1c-1.3,0.8-3,0.8-4.3,0&#10;&#9;&#9;c-2.8-1.7-7.7-4.6-10.7-6.5c-0.9-0.5-1.1-1.6-0.6-2.5c0,0,0,0,0,0c0.2-0.3,0.4-0.5,0.6-0.6l44.5-25.9&#10;&#9;&#9;C281.9,293.4,282.9,293.4,283.6,293.9L283.6,293.9z"/>
	<path class="st15_data-processing-93-34fd1" d="M283,314.7l-15.4,8.7c-0.7,0.4-1,1.4-0.6,2.1c0.1,0.2,0.3,0.4,0.6,0.6l9.1,5.3c0.6,0.4,1.4,0.4,2,0l15.8-9&#10;&#9;&#9;c0.6-0.3,0.9-1.1,0.5-1.7c-0.1-0.2-0.3-0.4-0.5-0.5l-9.5-5.4C284.4,314.4,283.6,314.4,283,314.7z"/>
</g>
</svg>