<svg version="1.1" id="Layer_1" xmlns="http://www.w3.org/2000/svg" xmlns:xlink="http://www.w3.org/1999/xlink" x="0px" y="0px" viewBox="0 0 500 500" style="width: 151px;" xml:space="preserve" data-imageid="data-visualization-21" imageName="Data Visualization" class="illustrations_image">
<style type="text/css">
	.st0_data-visualization-21{fill:#AFDBBD;}
	.st1_data-visualization-21{opacity:0.63;fill:url(#Shadow_00000174568419884732664710000012901105373336363437_);enable-background:new    ;}
	.st2_data-visualization-21{fill:#42210B;}
	.st3_data-visualization-21{fill:#68E1FD;}
	.st4_data-visualization-21{opacity:0.15;enable-background:new    ;}
	.st5_data-visualization-21{fill:#606060;}
	.st6_data-visualization-21{fill:#003A7F;}
	.st7_data-visualization-21{fill:#AB643C;}
	.st8_data-visualization-21{fill:#29ABE2;}
	.st9_data-visualization-21{fill:#FFFFFF;}
</style>
<path id="Base_data-visualization-21" class="st0_data-visualization-21" d="M483,254.8l-178.8-104c-2.6-1.5-5.8-1.5-8.5,0l-267.3,153c-4,2.3-5.4,7.5-3.1,11.5&#10;&#9;c0.7,1.3,1.8,2.4,3.1,3.1l171,98.7c8.5,4.9,19.1,4.9,27.6,0l256-147.7c4-2.4,5.4-7.5,3-11.6C485.3,256.6,484.3,255.5,483,254.8z"/>
<linearGradient id="Shadow_00000144336606831522175910000005240292537759970724_-data-visualization-21" gradientUnits="userSpaceOnUse" x1="329.3084" y1="155.079" x2="310.5384" y2="186.359" gradientTransform="matrix(1 0 0 -1 0 502)">
	<stop offset="0" style="stop-color:#FFFFFF;stop-opacity:0"/>
	<stop offset="0.99" style="stop-color:#2E7C5F"/>
</linearGradient>
<path id="Shadow_data-visualization-21" style="opacity:0.63;fill:url(#Shadow_00000144336606831522175910000005240292537759970724_);enable-background:new    ;" d="&#10;&#9;M233.9,400.3c22.5,12.9-10.7-7.4,11.2,6.3c18.1-8.8,177.6-101.4,199.5-117.5c-31.5-16.4-22.3-15-41.7-27.2L198.2,378.3&#10;&#9;C210.6,384.8,222.3,393.7,233.9,400.3z"/>
<g id="Lines_data-visualization-21">
	<g id="Line_data-visualization-21">
		<path class="st2_data-visualization-21" d="M192.7,384.8l-0.5-0.3L62.8,310.6l229.6-133l128.5,74.2L192.7,384.8z M66.8,310.6l125.9,71.9l224.2-130.8&#10;&#9;&#9;&#9;l-124.5-71.9L66.8,310.6z"/>
	</g>
	<rect x="187.2" y="178.7" class="st2_data-visualization-21" width="2" height="60.6"/>
</g>
<g id="Cloud_data-visualization-21">
	<path class="st3_data-visualization-21 targetColor" d="M264.3,111.9c-1.5-1.9-22-14-22-14V98c-4.2-4.7-12-3-22.1,5.8c0,0-0.4-9.7-12-11.2s-14.9,3.7-14.9,3.7&#10;&#9;&#9;s-3.9-18.4-27.2-11.5c-21.1,6.3-18.1,27.5-18.1,27.5s-13.1-3.3-23.6,11.2s-9.7,31.4-9.7,31.4s-22.1,8-24.9,28.1&#10;&#9;&#9;c-0.2,1.7-0.4,3.5-0.4,5.2v0.5c-0.3,3.6,0.5,9.1,1.2,12.9c0.4,2.5,1.9,4.6,4.1,5.9l23.4,13.4c0.7-5.8-0.1-11.7-2.4-17.1l116-67.3&#10;&#9;&#9;c0,0,8.9-7.8,12.6-18.2l8.9-2.3C253,115.9,265.7,113.8,264.3,111.9z" style="fill: rgb(104, 225, 253);"/>
	<path class="st4_data-visualization-21" d="M264.3,111.9c-1.5-1.9-22-14-22-14V98c-4.2-4.7-12-3-22.1,5.8c0,0-0.4-9.7-12-11.2s-14.9,3.7-14.9,3.7&#10;&#9;&#9;s-3.9-18.4-27.2-11.5c-21.1,6.3-18.1,27.5-18.1,27.5s-13.1-3.3-23.6,11.2s-9.7,31.4-9.7,31.4s-22.1,8-24.9,28.1&#10;&#9;&#9;c-0.2,1.7-0.4,3.5-0.4,5.2v0.5c-0.3,3.6,0.5,9.1,1.2,12.9c0.4,2.5,1.9,4.6,4.1,5.9l23.4,13.4c0.7-5.8-0.1-11.7-2.4-17.1l116-67.3&#10;&#9;&#9;c0,0,8.9-7.8,12.6-18.2l8.9-2.3C253,115.9,265.7,113.8,264.3,111.9z"/>
	<path class="st3_data-visualization-21 targetColor" d="M130.6,222.4L254,150.8c0,0,15.1-13.2,14.2-28.1s-10.8-17.3-25.5-4.4c0,0-0.3-12.4-12-11.2s-16.1,8.8-16.1,8.8&#10;&#9;&#9;s2.3-22.1-20.9-15.2c-12.2,3.4-21.3,13.7-23.2,26.2c0,0-13.1-3.3-23.6,11.2s-9.7,31.4-9.7,31.4s-22.1,8-24.9,28.1&#10;&#9;&#9;S119,226.5,130.6,222.4z" style="fill: rgb(104, 225, 253);"/>
</g>
<g id="Monitor_data-visualization-21">
	<path class="st5_data-visualization-21" d="M319.6,285.3l23.7,11.4c2.7,1.3,3.9,4.6,2.5,7.3c-0.5,1-1.2,1.8-2.2,2.3l-56.2,32.8c-2.5,1.5-5.8,0.7-7.3-1.8&#10;&#9;&#9;l-13.6-21.2"/>
	<path class="st3_data-visualization-21 targetColor" d="M190.7,230.5l189-108.9c4.1-2.3,9.3-0.9,11.6,3.2c0.7,1.3,1.1,2.8,1.1,4.3v113.2c0,2.5-1.3,4.9-3.5,6.1&#10;&#9;&#9;L187.4,364.6c-2.2,1.3-5,0.5-6.2-1.7c-0.4-0.7-0.6-1.5-0.6-2.3V247.9C180.6,240.7,184.4,234.1,190.7,230.5z" style="fill: rgb(104, 225, 253);"/>
	<path class="st6_data-visualization-21" d="M379.6,130.1L196.4,235.6c-4,2.3-6.4,6.5-6.4,11.1v84.9c0,2.6,2.1,4.6,4.7,4.6c0.8,0,1.6-0.2,2.3-0.6&#10;&#9;&#9;l186.8-107.2c1.4-0.8,2.3-2.4,2.3-4v-90.5c0-2.4-1.9-4.3-4.3-4.3C381,129.6,380.3,129.8,379.6,130.1z"/>
	<ellipse transform="matrix(0.1891 -0.982 0.982 0.1891 -34.6261 529.6475)" class="st7_data-visualization-21" cx="303.4" cy="285.8" rx="4.5" ry="4"/>
	<rect x="335.1" y="173.6" class="st8_data-visualization-21" width="1" height="72.8"/>
	<rect x="317" y="184.9" class="st8_data-visualization-21" width="1" height="72.8"/>
	<rect x="288.8" y="201.7" class="st8_data-visualization-21" width="1" height="72.8"/>
	<rect x="268.4" y="212.8" class="st8_data-visualization-21" width="1" height="72.8"/>
	<rect x="250.1" y="224.6" class="st8_data-visualization-21" width="1" height="72.8"/>
	<path class="st9_data-visualization-21" d="M274.9,264.8c-0.8,0-1.7-0.2-2.4-0.6c-3.3-1.8-4.8-7.2-6.4-12.9c-1.7-5.9-3.4-11.9-7-13.5&#10;&#9;&#9;c-1.7-0.7-3.7-0.4-6.1,0.8l-0.5-0.9c2.7-1.4,5-1.7,7-0.9c4.1,1.7,5.9,8,7.6,14.1c1.5,5.2,3,10.7,6,12.3c1.1,0.6,2.3,0.7,3.5,0.3&#10;&#9;&#9;c6.1-1.8,5.8-13,5.7-17.7c0-0.6,0-1.1,0-1.6c0-1.6-0.1-3.5-0.3-5.5c-0.7-8.3-1.6-19.6,7.3-23.1c1.3-0.6,2.8-0.6,4.1,0.1&#10;&#9;&#9;c3.7,1.9,5.4,9,7,15.9c1.4,6.1,2.9,12.3,5.6,13.5c0.8,0.3,1.8,0.3,2.6-0.2c5.2-2.7,5.5-8.8,5.8-14.6s0.6-11.6,5.7-13.9&#10;&#9;&#9;c1.6-0.8,3.4-0.7,5,0.1c6.4,3.3,9.5,18.1,9.6,18.8l-1,0.2c0-0.1-3.1-15-9.1-18.1c-1.3-0.7-2.8-0.7-4.1-0.1c-4.5,2-4.8,7.4-5.1,13&#10;&#9;&#9;c-0.3,6.1-0.7,12.5-6.4,15.5c-1,0.6-2.3,0.7-3.5,0.3c-3.1-1.4-4.6-7.6-6.1-14.2s-3.2-13.6-6.5-15.3c-1-0.5-2.2-0.5-3.3,0&#10;&#9;&#9;c-8.2,3.2-7.4,13.6-6.7,22.1c0.2,2.1,0.3,4,0.3,5.6c0,0.4,0,0.9,0,1.5c0.1,5.4,0.5,16.7-6.4,18.7&#10;&#9;&#9;C276.1,264.8,275.5,264.8,274.9,264.8z"/>
	<ellipse class="st9_data-visualization-21" cx="334" cy="235.6" rx="2" ry="2.4"/>
	<ellipse class="st9_data-visualization-21" cx="252.6" cy="238.8" rx="2" ry="2.4"/>
	<ellipse class="st9_data-visualization-21" cx="298.2" cy="224.6" rx="2" ry="2.4"/>
	<ellipse class="st9_data-visualization-21" cx="282.5" cy="241.2" rx="2" ry="2.4"/>
</g>
</svg>